<svg xmlns="http://www.w3.org/2000/svg" width="28.245" height="25.892" viewBox="0 0 28.245 25.892">
  <g id="feedback_1_" data-name="feedback (1)" transform="translate(0 -21.33)">
    <g id="Group_1778" data-name="Group 1778" transform="translate(0 21.33)">
      <g id="Group_1777" data-name="Group 1777" transform="translate(0 0)">
        <path id="Path_538" data-name="Path 538" d="M25.528,31.765a.588.588,0,0,0-.641.128l-3.633,3.632a1.758,1.758,0,0,1-.9.483l-2.942.588a1.765,1.765,0,0,1-2.077-2.077l.519-2.6H6.473a.588.588,0,1,1,0-1.177h9.878c.02-.023.032-.051.054-.073l2.281-2.281H6.473a.588.588,0,1,1,0-1.177H19.418a.573.573,0,0,1,.33.114l3.819-3.818a3.4,3.4,0,0,1,1.158-.754.589.589,0,0,0,.106-1.038,2.349,2.349,0,0,0-1.294-.389H2.354A2.357,2.357,0,0,0,0,23.684V46.633a.589.589,0,0,0,.363.544.582.582,0,0,0,.225.045A.588.588,0,0,0,1,47.049l5.712-5.712H23.538a2.356,2.356,0,0,0,2.354-2.354V32.308A.589.589,0,0,0,25.528,31.765ZM13.534,35.453H6.473a.588.588,0,1,1,0-1.177h7.061a.588.588,0,1,1,0,1.177Z" transform="translate(0 -21.33)" fill="#262529"/>
        <path id="Path_539" data-name="Path 539" d="M308.18,64a2.266,2.266,0,0,0-1.593.66l-7.162,7.161a.585.585,0,0,0-.161.3l-.588,2.943a.588.588,0,0,0,.577.7.6.6,0,0,0,.115-.011l2.941-.588a.585.585,0,0,0,.3-.161l7.164-7.162h0A2.252,2.252,0,0,0,308.18,64Zm-.933,4.707-1.522-1.522.832-.832,1.522,1.522Z" transform="translate(-282.187 -61.646)" fill="#262529"/>
      </g>
    </g>
  </g>
</svg>
