<svg id="Icon_Facebook" data-name="Icon/Facebook" xmlns="http://www.w3.org/2000/svg" width="19.001" height="19" viewBox="0 0 19.001 19">
  <g id="instagram">
    <path id="Shape" d="M9.5,19c-1.691,0-3.193-.026-3.919-.067A5.628,5.628,0,0,1,1.6,17.4,5.588,5.588,0,0,1,.067,13.417c-.089-1.575-.089-6.264,0-7.839A5.613,5.613,0,0,1,1.6,1.6,5.61,5.61,0,0,1,5.582.067C6.307.025,7.809,0,9.5,0s3.193.025,3.918.067A5.623,5.623,0,0,1,17.4,1.6a5.58,5.58,0,0,1,1.534,3.98c.09,1.575.09,6.261,0,7.835A5.62,5.62,0,0,1,17.4,17.4a5.579,5.579,0,0,1-3.981,1.535C12.693,18.975,11.192,19,9.5,19Zm0-1.712c.2,0,.425,0,.675,0,.3,0,.646.007,1,.007a13.381,13.381,0,0,0,3.921-.393A3.21,3.21,0,0,0,16.908,15.1a17.076,17.076,0,0,0,.385-4.919c0-.253,0-.483,0-.681s0-.428,0-.681A17.093,17.093,0,0,0,16.908,3.9,3.21,3.21,0,0,0,15.1,2.094,13.634,13.634,0,0,0,11.143,1.7c-.349,0-.683,0-.978.006-.246,0-.469,0-.662,0s-.425,0-.675,0c-.3,0-.647-.007-1-.007A13.382,13.382,0,0,0,3.9,2.094,3.209,3.209,0,0,0,2.1,3.9a17.31,17.31,0,0,0-.386,4.938c0,.246,0,.469,0,.662s0,.425,0,.675A17.119,17.119,0,0,0,2.1,15.1,3.209,3.209,0,0,0,3.9,16.907a13.634,13.634,0,0,0,3.959.392c.349,0,.683,0,.978-.006C9.086,17.29,9.31,17.288,9.5,17.288Zm0-2.917A4.871,4.871,0,1,1,14.373,9.5,4.876,4.876,0,0,1,9.5,14.372Zm0-8.038A3.167,3.167,0,1,0,12.67,9.5,3.17,3.17,0,0,0,9.5,6.334Zm5.069-.767a1.137,1.137,0,1,1,1.136-1.137A1.138,1.138,0,0,1,14.572,5.566Z" fill="#fff"/>
  </g>
</svg>
