<svg id="Icon_Facebook" data-name="Icon/Facebook" xmlns="http://www.w3.org/2000/svg" width="19" height="13.062" viewBox="0 0 19 13.062">
  <path id="Icon_Youtube" data-name="Icon/Youtube" d="M9.5,13.062a58.008,58.008,0,0,1-7.424-.39A2.317,2.317,0,0,1,.4,11.046a24.13,24.13,0,0,1-.4-4.5,24.121,24.121,0,0,1,.4-4.5A2.362,2.362,0,0,1,2.077.391,57.851,57.851,0,0,1,9.5,0a57.851,57.851,0,0,1,7.424.391A2.359,2.359,0,0,1,18.6,2.043a24.058,24.058,0,0,1,.4,4.5,24.067,24.067,0,0,1-.4,4.5,2.314,2.314,0,0,1-1.679,1.627A58.008,58.008,0,0,1,9.5,13.062Zm-2.375-9.5V9.5l4.75-2.969Z" transform="translate(0)" fill="#fff"/>
</svg>
