<svg id="Icon_Facebook" data-name="Icon/Facebook" xmlns="http://www.w3.org/2000/svg" width="19" height="15.431" viewBox="0 0 19 15.431">
  <path id="Icon_Twitter" data-name="Icon/Twitter" d="M19,1.833a7.77,7.77,0,0,1-2.242.6A3.781,3.781,0,0,0,18.47.29,7.644,7.644,0,0,1,16,1.23a3.9,3.9,0,0,0-5.6-.091A3.753,3.753,0,0,0,9.259,3.894a4.322,4.322,0,0,0,.1.892,10.851,10.851,0,0,1-4.479-1.2A11.04,11.04,0,0,1,1.326.711,3.815,3.815,0,0,0,.8,2.676a3.793,3.793,0,0,0,.47,1.857A3.89,3.89,0,0,0,2.532,5.919a3.863,3.863,0,0,1-1.76-.494v.048a3.763,3.763,0,0,0,.886,2.478A3.831,3.831,0,0,0,3.894,9.295a4.034,4.034,0,0,1-1.025.133,4.968,4.968,0,0,1-.735-.06,3.9,3.9,0,0,0,3.641,2.7A7.624,7.624,0,0,1,.94,13.731,8.291,8.291,0,0,1,0,13.683a10.815,10.815,0,0,0,5.98,1.748,11.377,11.377,0,0,0,3.894-.657,9.9,9.9,0,0,0,3.111-1.76,11.779,11.779,0,0,0,2.224-2.538,11.316,11.316,0,0,0,1.392-3,11.067,11.067,0,0,0,.458-3.129q0-.338-.012-.506A8.155,8.155,0,0,0,19,1.833Z" fill="#fff"/>
</svg>
