<svg xmlns="http://www.w3.org/2000/svg" width="23.89" height="15.217" viewBox="0 0 23.89 15.217">
  <g id="Live_1_" transform="translate(-91.16 0)">
    <g id="Group_1809" data-name="Group 1809" transform="translate(91.16 0)">
      <path id="Path_549" data-name="Path 549" d="M93.539,14.783a12.009,12.009,0,0,1,0-14.349,1.087,1.087,0,0,1,1.739,1.306,9.821,9.821,0,0,0,0,11.738,1.087,1.087,0,0,1-1.739,1.306Z" transform="translate(-91.16 0)" fill="#fff"/>
    </g>
    <g id="Group_1810" data-name="Group 1810" transform="translate(110.715 0)">
      <path id="Path_550" data-name="Path 550" d="M361.451,15.005a1.088,1.088,0,0,1-.217-1.522,9.821,9.821,0,0,0,0-11.738A1.087,1.087,0,0,1,362.973.44a12.009,12.009,0,0,1,0,14.349,1.088,1.088,0,0,1-1.522.217Z" transform="translate(-361.017 -0.006)" fill="#fff"/>
    </g>
    <g id="Group_1811" data-name="Group 1811" transform="translate(95.491 2.175)">
      <path id="Path_551" data-name="Path 551" d="M152.87,40.521a7.6,7.6,0,0,1,0-10.146,1.087,1.087,0,0,1,1.62,1.45,5.425,5.425,0,0,0,0,7.246,1.087,1.087,0,0,1-1.62,1.45Z" transform="translate(-150.928 -30.014)" fill="#fff"/>
    </g>
    <g id="Group_1812" data-name="Group 1812" transform="translate(106.88 2.174)">
      <path id="Path_552" data-name="Path 552" d="M308.454,40.6a1.088,1.088,0,0,1-.085-1.535,5.425,5.425,0,0,0,0-7.246,1.087,1.087,0,0,1,1.62-1.45,7.6,7.6,0,0,1,0,10.146A1.087,1.087,0,0,1,308.454,40.6Z" transform="translate(-308.092 -30.003)" fill="#fff"/>
    </g>
    <g id="Group_1813" data-name="Group 1813" transform="translate(99.845 4.347)">
      <path id="Path_553" data-name="Path 553" d="M214.261,66.522a3.261,3.261,0,1,1,3.261-3.261A3.264,3.264,0,0,1,214.261,66.522Z" transform="translate(-211 -60)" fill="#fff"/>
    </g>
  </g>
</svg>
