<svg xmlns="http://www.w3.org/2000/svg" width="19.242" height="14.309" viewBox="0 0 19.242 14.309">
  <g id="XMLID_2_" transform="translate(0 -42.299)">
    <path id="XMLID_4_" d="M2.986,109.374H13.12a.875.875,0,1,0,0-1.749H2.986l1.131-1.131a.875.875,0,1,0-1.237-1.237L.256,107.88c-.02.02-.039.041-.058.064l-.013.017c-.013.017-.026.034-.038.052l-.01.016c-.012.019-.024.038-.034.057L.1,108.1c-.011.021-.022.043-.031.065l0,.008c-.01.024-.018.047-.026.072l0,.009c-.007.024-.014.048-.018.073,0,.007,0,.015,0,.023s-.007.041-.009.062a.862.862,0,0,0,0,.175c0,.021.006.042.009.063s0,.015,0,.022c.005.025.011.05.019.074l0,.009c.008.025.016.049.026.073l0,.008c.009.023.02.044.031.066l.006.012c.011.02.023.039.035.058l.009.016c.012.018.025.035.039.052l.012.017c.018.022.037.043.058.064l2.624,2.624A.875.875,0,1,0,4.117,110.5Z" transform="translate(0 -59.045)" fill="#facb43"/>
    <path id="XMLID_5_" d="M108.936,42.3a7.149,7.149,0,0,0-5.942,3.168.875.875,0,0,0,1.452.976,5.405,5.405,0,1,1,.007,6.033.875.875,0,0,0-1.45.979A7.155,7.155,0,1,0,108.936,42.3Z" transform="translate(-96.848)" fill="#facb43"/>
  </g>
</svg>
