<svg id="profile" xmlns="http://www.w3.org/2000/svg" width="16.854" height="17" viewBox="0 0 16.854 17">
  <circle id="Ellipse_24" data-name="Ellipse 24" cx="3.5" cy="3.5" r="3.5" transform="translate(3.052)" fill="#facb43"/>
  <path id="Path_543" data-name="Path 543" d="M8.525,18.5a1.853,1.853,0,0,1,.15-2.07,1.853,1.853,0,0,1-.15-2.07l.6-1.035a1.853,1.853,0,0,1,1.6-.924,1.882,1.882,0,0,1,.267.019,1.919,1.919,0,0,1,.086-.175A3.486,3.486,0,0,0,9.793,12H3.511A3.515,3.515,0,0,0,0,15.511V18.1a.555.555,0,0,0,.554.554H8.61Z" transform="translate(0 -3.13)" fill="#facb43"/>
  <path id="Path_544" data-name="Path 544" d="M19.485,17.042a2.686,2.686,0,0,0,.035-.347,2.809,2.809,0,0,0-.035-.347l.666-.5a.37.37,0,0,0,.1-.48l-.6-1.035a.37.37,0,0,0-.463-.156l-.766.323a2.746,2.746,0,0,0-.605-.36l-.1-.814A.37.37,0,0,0,17.346,13h-1.2a.37.37,0,0,0-.367.324l-.1.814a2.758,2.758,0,0,0-.605.36l-.766-.323a.369.369,0,0,0-.463.156l-.6,1.035a.37.37,0,0,0,.1.48l.666.5a2.686,2.686,0,0,0-.035.347,2.809,2.809,0,0,0,.035.347l-.666.5a.37.37,0,0,0-.1.48l.6,1.036a.37.37,0,0,0,.463.156l.766-.324a2.746,2.746,0,0,0,.605.36l.1.814a.369.369,0,0,0,.366.324h1.2a.37.37,0,0,0,.367-.324l.1-.814a2.758,2.758,0,0,0,.605-.36l.766.323a.369.369,0,0,0,.463-.156l.6-1.036a.37.37,0,0,0-.1-.48Zm-2.737,1.132A1.478,1.478,0,1,1,18.226,16.7,1.478,1.478,0,0,1,16.748,18.174Z" transform="translate(-3.443 -3.391)" fill="#facb43"/>
</svg>
