<svg xmlns="http://www.w3.org/2000/svg" xmlns:xlink="http://www.w3.org/1999/xlink" width="20.654" height="20.731" viewBox="0 0 20.654 20.731">
  <defs>
    <clipPath id="clip-path">
      <rect id="Rectangle_2" data-name="Rectangle 2" width="20.654" height="20.731" fill="#fbcb43"/>
    </clipPath>
  </defs>
  <g id="Group_1699" data-name="Group 1699" transform="translate(-1256.416 -34)">
    <g id="Group_2" data-name="Group 2" transform="translate(1256.416 34)">
      <g id="Group_1" data-name="Group 1" clip-path="url(#clip-path)">
        <path id="Path_1" data-name="Path 1" d="M19.956,16.337l-3.412-3.412a9.413,9.413,0,0,0,1.034-4.136,8.789,8.789,0,1,0-8.789,8.789,9.413,9.413,0,0,0,4.136-1.034l3.412,3.412a2.5,2.5,0,0,0,3.619,0,2.7,2.7,0,0,0,0-3.619M2.068,8.789A6.721,6.721,0,1,1,8.789,15.51,6.708,6.708,0,0,1,2.068,8.789" fill="#fbcb43"/>
      </g>
    </g>
  </g>
</svg>
