<svg id="share_3_" data-name="share (3)" xmlns="http://www.w3.org/2000/svg" width="14.779" height="16.122" viewBox="0 0 14.779 16.122">
  <path id="Path_521" data-name="Path 521" d="M319.034,18.183A2.183,2.183,0,1,1,316.851,16,2.183,2.183,0,0,1,319.034,18.183Zm0,0" transform="translate(-304.759 -15.496)" fill="#facb43"/>
  <path id="Path_522" data-name="Path 522" d="M301.355,5.374a2.687,2.687,0,1,1,2.687-2.687A2.69,2.69,0,0,1,301.355,5.374Zm0-4.367a1.679,1.679,0,1,0,1.679,1.679A1.681,1.681,0,0,0,301.355,1.008Zm0,0" transform="translate(-289.263)" fill="#facb43"/>
  <path id="Path_523" data-name="Path 523" d="M319.034,359.515a2.183,2.183,0,1,1-2.183-2.183A2.183,2.183,0,0,1,319.034,359.515Zm0,0" transform="translate(-304.759 -346.08)" fill="#facb43"/>
  <path id="Path_524" data-name="Path 524" d="M301.355,346.706a2.687,2.687,0,1,1,2.687-2.687A2.69,2.69,0,0,1,301.355,346.706Zm0-4.367a1.679,1.679,0,1,0,1.679,1.679A1.681,1.681,0,0,0,301.355,342.34Zm0,0" transform="translate(-289.263 -330.584)" fill="#facb43"/>
  <path id="Path_525" data-name="Path 525" d="M20.367,188.851a2.183,2.183,0,1,1-2.183-2.183A2.183,2.183,0,0,1,20.367,188.851Zm0,0" transform="translate(-15.496 -180.79)" fill="#facb43"/>
  <path id="Path_526" data-name="Path 526" d="M2.687,176.042a2.687,2.687,0,1,1,2.687-2.687A2.69,2.69,0,0,1,2.687,176.042Zm0-4.366a1.679,1.679,0,1,0,1.679,1.679A1.681,1.681,0,0,0,2.687,171.676Zm0,0" transform="translate(0 -165.294)" fill="#facb43"/>
  <path id="Path_527" data-name="Path 527" d="M115.021,95.113a.672.672,0,0,1-.333-1.256l6.233-3.554a.672.672,0,1,1,.665,1.168l-6.233,3.554A.667.667,0,0,1,115.021,95.113Zm0,0" transform="translate(-110.748 -87.374)" fill="#facb43"/>
  <path id="Path_528" data-name="Path 528" d="M121.275,271.117a.667.667,0,0,1-.332-.088l-6.233-3.554a.672.672,0,0,1,.665-1.168l6.233,3.554a.672.672,0,0,1-.333,1.256Zm0,0" transform="translate(-110.77 -257.836)" fill="#facb43"/>
</svg>
