<svg id="Group_1789" data-name="Group 1789" xmlns="http://www.w3.org/2000/svg" width="28.124" height="28.124" viewBox="0 0 28.124 28.124">
  <ellipse id="Ellipse_22" data-name="Ellipse 22" cx="14.062" cy="14.062" rx="14.062" ry="14.062" transform="translate(0)" fill="#f9b92b"/>
  <g id="share_3_" data-name="share (3)" transform="translate(6.351 7.258)">
    <path id="Path_521" data-name="Path 521" d="M318.629,17.981A1.981,1.981,0,1,1,316.649,16,1.981,1.981,0,0,1,318.629,17.981Zm0,0" transform="translate(-305.679 -15.543)" fill="#262529"/>
    <path id="Path_522" data-name="Path 522" d="M301.106,4.876a2.438,2.438,0,1,1,2.438-2.438A2.44,2.44,0,0,1,301.106,4.876Zm0-3.961a1.524,1.524,0,1,0,1.524,1.524A1.525,1.525,0,0,0,301.106.914Zm0,0" transform="translate(-290.136)" fill="#262529"/>
    <path id="Path_523" data-name="Path 523" d="M318.629,359.313a1.981,1.981,0,1,1-1.981-1.981A1.981,1.981,0,0,1,318.629,359.313Zm0,0" transform="translate(-305.679 -347.124)" fill="#262529"/>
    <path id="Path_524" data-name="Path 524" d="M301.106,346.208a2.438,2.438,0,1,1,2.438-2.438A2.44,2.44,0,0,1,301.106,346.208Zm0-3.961a1.524,1.524,0,1,0,1.524,1.524A1.525,1.525,0,0,0,301.106,342.246Zm0,0" transform="translate(-290.136 -331.581)" fill="#262529"/>
    <path id="Path_525" data-name="Path 525" d="M19.961,188.649a1.981,1.981,0,1,1-1.981-1.981A1.981,1.981,0,0,1,19.961,188.649Zm0,0" transform="translate(-15.543 -181.335)" fill="#262529"/>
    <path id="Path_526" data-name="Path 526" d="M2.438,175.543a2.438,2.438,0,1,1,2.438-2.438A2.44,2.44,0,0,1,2.438,175.543Zm0-3.961a1.524,1.524,0,1,0,1.524,1.524A1.525,1.525,0,0,0,2.438,171.582Zm0,0" transform="translate(0 -165.792)" fill="#262529"/>
    <path id="Path_527" data-name="Path 527" d="M114.959,94.658a.609.609,0,0,1-.3-1.139l5.655-3.224a.61.61,0,1,1,.6,1.059l-5.655,3.224A.606.606,0,0,1,114.959,94.658Zm0,0" transform="translate(-111.082 -87.637)" fill="#262529"/>
    <path id="Path_528" data-name="Path 528" d="M120.635,270.662a.606.606,0,0,1-.3-.08l-5.655-3.224a.61.61,0,0,1,.6-1.059l5.655,3.224a.61.61,0,0,1-.3,1.139Zm0,0" transform="translate(-111.104 -258.614)" fill="#262529"/>
  </g>
</svg>
